<mxfile host="app.diagrams.net" modified="2021-09-22T20:25:42.231Z" agent="5.0 (X11)" etag="DfdiXL3frFVyiBHtMqiU" version="15.2.9" type="github">
  <diagram id="0J29SXEDrfdCCu9A4Jwd" name="Page-1">
    <mxGraphModel dx="1422" dy="746" grid="1" gridSize="10" guides="1" tooltips="1" connect="1" arrows="1" fold="1" page="1" pageScale="1" pageWidth="827" pageHeight="1169" math="0" shadow="0">
      <root>
        <mxCell id="0" />
        <mxCell id="1" parent="0" />
        <mxCell id="GdfN9jX6rAno2gfqHbO2-1" value="Jugador/a" style="shape=umlActor;verticalLabelPosition=bottom;verticalAlign=top;html=1;outlineConnect=0;" vertex="1" parent="1">
          <mxGeometry x="180" y="310" width="30" height="60" as="geometry" />
        </mxCell>
        <mxCell id="GdfN9jX6rAno2gfqHbO2-2" value="" style="rounded=0;whiteSpace=wrap;html=1;" vertex="1" parent="1">
          <mxGeometry x="330" y="140" width="320" height="420" as="geometry" />
        </mxCell>
        <mxCell id="GdfN9jX6rAno2gfqHbO2-3" value="Seleccionar tablero" style="ellipse;whiteSpace=wrap;html=1;" vertex="1" parent="1">
          <mxGeometry x="440" y="190" width="108" height="60" as="geometry" />
        </mxCell>
        <mxCell id="GdfN9jX6rAno2gfqHbO2-5" value="Descubrir casilla" style="ellipse;whiteSpace=wrap;html=1;" vertex="1" parent="1">
          <mxGeometry x="440" y="280" width="110" height="70" as="geometry" />
        </mxCell>
        <mxCell id="GdfN9jX6rAno2gfqHbO2-6" value="Colocar bandera" style="ellipse;whiteSpace=wrap;html=1;" vertex="1" parent="1">
          <mxGeometry x="440" y="380" width="110" height="70" as="geometry" />
        </mxCell>
        <mxCell id="GdfN9jX6rAno2gfqHbO2-7" value="Pausar partida" style="ellipse;whiteSpace=wrap;html=1;" vertex="1" parent="1">
          <mxGeometry x="440" y="470" width="110" height="60" as="geometry" />
        </mxCell>
        <mxCell id="GdfN9jX6rAno2gfqHbO2-8" value="Busca Minas" style="text;html=1;strokeColor=none;fillColor=none;align=center;verticalAlign=middle;whiteSpace=wrap;rounded=0;" vertex="1" parent="1">
          <mxGeometry x="540" y="150" width="110" height="20" as="geometry" />
        </mxCell>
        <mxCell id="GdfN9jX6rAno2gfqHbO2-9" value="" style="endArrow=classic;html=1;entryX=0;entryY=0.5;entryDx=0;entryDy=0;" edge="1" parent="1" source="GdfN9jX6rAno2gfqHbO2-1" target="GdfN9jX6rAno2gfqHbO2-3">
          <mxGeometry width="50" height="50" relative="1" as="geometry">
            <mxPoint x="290" y="300" as="sourcePoint" />
            <mxPoint x="340" y="250" as="targetPoint" />
          </mxGeometry>
        </mxCell>
        <mxCell id="GdfN9jX6rAno2gfqHbO2-10" value="" style="endArrow=classic;html=1;exitX=0.5;exitY=0.5;exitDx=0;exitDy=0;exitPerimeter=0;" edge="1" parent="1" source="GdfN9jX6rAno2gfqHbO2-1" target="GdfN9jX6rAno2gfqHbO2-5">
          <mxGeometry width="50" height="50" relative="1" as="geometry">
            <mxPoint x="300" y="370" as="sourcePoint" />
            <mxPoint x="350" y="320" as="targetPoint" />
          </mxGeometry>
        </mxCell>
        <mxCell id="GdfN9jX6rAno2gfqHbO2-11" value="" style="endArrow=classic;html=1;" edge="1" parent="1" source="GdfN9jX6rAno2gfqHbO2-1" target="GdfN9jX6rAno2gfqHbO2-6">
          <mxGeometry width="50" height="50" relative="1" as="geometry">
            <mxPoint x="300" y="410" as="sourcePoint" />
            <mxPoint x="350" y="360" as="targetPoint" />
          </mxGeometry>
        </mxCell>
        <mxCell id="GdfN9jX6rAno2gfqHbO2-12" value="" style="endArrow=classic;html=1;" edge="1" parent="1" source="GdfN9jX6rAno2gfqHbO2-1" target="GdfN9jX6rAno2gfqHbO2-7">
          <mxGeometry width="50" height="50" relative="1" as="geometry">
            <mxPoint x="320" y="450" as="sourcePoint" />
            <mxPoint x="370" y="400" as="targetPoint" />
          </mxGeometry>
        </mxCell>
      </root>
    </mxGraphModel>
  </diagram>
</mxfile>
